<?xml version="1.0" encoding="utf-8"?>
<!-- Generator: Adobe Illustrator 27.0.0, SVG Export Plug-In . SVG Version: 6.00 Build 0)  -->
<svg version="1.1" id="Capa_1" xmlns="http://www.w3.org/2000/svg" xmlns:xlink="http://www.w3.org/1999/xlink" x="0px" y="0px"
	 viewBox="0 0 300 35.3" style="enable-background:new 0 0 300 35.3;" xml:space="preserve">
<style type="text/css">
	.st0{fill:#3D3935;}
</style>
<g>
	<g>
		<path class="st0" d="M20.5,3.7C10.4,3.7,0,13.4,0,23.5c0,6.8,5,11.9,12.2,11.9h16.2l7.9-31.6H20.5z M18.3,33.2
			c-4-1.4-6.8-4-6.8-10.1c0-6.8,10.8-9.7,10.8-14.7c0-0.7,0-1.4-0.4-2.5c2.5,1.4,3.2,3.6,3.2,5.8c0,7.9-8.3,9.7-8.3,16.2
			C16.9,29.9,17.6,32.1,18.3,33.2z"/>
		<g>
			<path class="st0" d="M68.8,27V3.7h3.3V27H68.8z"/>
			<path class="st0" d="M77.4,27V3.7h3.3V27H77.4z"/>
			<rect x="85.7" y="3.7" class="st0" width="3.5" height="2.9"/>
			<rect x="85.8" y="10.5" class="st0" width="3.3" height="16.5"/>
			<path class="st0" d="M124.5,27v-10c0-3-1.1-4.4-4-4.4c-1.8,0-3.5,0.5-4.1,0.7V27h-3.3V11.4c0.8-0.3,4.2-1.4,7.6-1.4
				c4.6,0,7.2,1.7,7.2,5.4V27H124.5z"/>
			<path class="st0" d="M139.6,27.4c-5.3,0-7.3-2.8-7.3-9c0-5.7,2.8-8.2,7.3-8.2c3,0,4.9,0.9,5.3,1.3v2.5c-0.8-0.5-2.5-1.3-4.3-1.3
				c-3.2,0-4.9,1.7-4.9,5.8c0,4.8,1.6,6.6,4.9,6.6c1.9,0,4.1-1.1,4.5-1.4v2.5C144.5,26.5,142.3,27.4,139.6,27.4z"/>
			<path class="st0" d="M56.6,10.1c-3.1,0-6,1-6.6,1.2v2.4c0.5-0.2,3.3-1.4,5.8-1.4c3.5,0,4.8,1.2,4.8,3.2v3.2l0,0v5.8
				c-0.4,0.2-2.3,0.6-4.5,0.6C53.7,25.1,52,24,52,22c0-2.5,2.2-3.3,5.8-3.3h1.4v-2h-2.6c-4.1,0-8,1.4-8,5.4c0,3.4,2.5,5.2,7.1,5.2
				c4.5,0,7.3-0.8,8-1.1V15.8C63.9,11.7,61.6,10.1,56.6,10.1z"/>
			<path class="st0" d="M100.9,10.1c-3.1,0-6,1-6.6,1.2v2.4c0.5-0.2,3.3-1.4,5.8-1.4c3.5,0,4.8,1.2,4.8,3.2l0,3.2h0v5.8
				c-0.4,0.2-2.3,0.6-4.5,0.6c-2.4,0-4.1-1.1-4.1-3.1c0-2.5,2.2-3.3,5.8-3.3h1.4v-2h-2.6c-4.1,0-8,1.4-8,5.4c0,3.4,2.5,5.2,7.1,5.2
				c4.5,0,7.3-0.8,8-1.1V15.8C108.2,11.7,106,10.1,100.9,10.1z"/>
			<path class="st0" d="M163.6,19.4v-1.1c0-5.2-2.8-8.2-7.4-8.2c-4.7,0-7.5,2.9-7.5,8.2c0,6,1.8,9,7.7,9c3.6,0,6.1-1,6.4-1.3v-2.5
				c-0.5,0.5-3.2,1.4-5.4,1.4c-3.8,0-5.3-1.9-5.4-5.7v-2.1c0.1-3.2,1.5-5,4.2-5c2.7,0,4.1,2.1,4.2,5h-7.1v2.1H163.6z"/>
		</g>
		<g>
			<path class="st0" d="M185.6,27h-4.4l-5.8-16.5h3.5l4.6,14.1l4.5-14.1h3.4L185.6,27z"/>
			<path class="st0" d="M222.6,27v-10c0-3-1.1-4.4-4-4.4c-1.8,0-3.5,0.5-4.1,0.7V27h-3.3V11.4c0.8-0.3,4.2-1.4,7.6-1.4
				c4.6,0,7.2,1.7,7.2,5.4V27H222.6z"/>
			<rect x="248.8" y="3.7" class="st0" width="3.5" height="2.9"/>
			<rect x="248.9" y="10.5" class="st0" width="3.3" height="16.5"/>
			<path class="st0" d="M267.7,27v-10c0-3-1.1-4.4-4-4.4c-1.8,0-3.5,0.5-4.1,0.7V27h-3.3V11.4c0.8-0.3,4.2-1.4,7.6-1.4
				c4.6,0,7.2,1.7,7.2,5.4V27H267.7z"/>
			<path class="st0" d="M241.5,3.7v20.5c-0.5,0.2-2.1,0.8-4.2,0.8c-3.1,0-4.5-1.9-4.5-6.7c0-3.9,1.5-5.8,4.6-5.8c1,0,2,0.2,2.8,0.4
				v-2.3c-0.9-0.3-2.3-0.6-3.7-0.6c-4.3,0-7.1,2.8-7.1,8.2c0,6.1,2.1,9,8,9c3.4,0,6.3-0.8,7.5-1.4V3.7H241.5z"/>
			<path class="st0" d="M282.6,10.1c-5.4,0-8.2,2.9-8.2,8.2c0,6,2.3,8.7,7,8.7c1.5,0,2.9-0.3,3.8-0.7v-2.2c-0.8,0.2-1.8,0.4-2.8,0.4
				c-3.1,0-4.6-2.1-4.6-6.2c0-3.7,1.5-5.8,4.6-5.8c2.3,0,3.8,0.6,4.1,0.7v15.2c0,3-1.4,4.6-5.3,4.6c-2,0-5-1.1-5.7-1.5v2.6
				c0.7,0.4,3.4,1.3,6.7,1.3c5.8,0,7.7-2.6,7.7-7.1V11.5C289.4,11.2,286.1,10.1,282.6,10.1z"/>
			<path class="st0" d="M207.9,19.4v-1.1c0-5.2-2.8-8.2-7.4-8.2c-4.7,0-7.5,2.9-7.5,8.2c0,6,1.8,9,7.7,9c3.6,0,6.1-1,6.4-1.3v-2.5
				c-0.5,0.5-3.2,1.4-5.4,1.4c-3.8,0-5.3-1.9-5.4-5.7v-2.1c0.1-3.2,1.5-5,4.2-5c2.7,0,4.1,2.1,4.2,5h-7.1v2.1H207.9z"/>
		</g>
	</g>
	<g>
		<path class="st0" d="M295.7,8.4c-1.2,0-2.2-0.4-3-1.1c-0.8-0.8-1.3-1.8-1.3-3c0-1.3,0.4-2.3,1.3-3.1c0.8-0.8,1.8-1.2,3-1.2
			c1.2,0,2.2,0.4,3,1.2c0.8,0.8,1.3,1.8,1.3,3.1c0,1.3-0.4,2.3-1.3,3C297.9,8,296.9,8.4,295.7,8.4z M295.7,7.8c1,0,1.8-0.3,2.5-1
			c0.7-0.7,1-1.5,1-2.5c0-1-0.3-1.9-1-2.6c-0.7-0.7-1.5-1-2.5-1c-1,0-1.8,0.3-2.5,1c-0.7,0.7-1,1.5-1,2.6c0,1,0.3,1.9,1,2.5
			S294.8,7.8,295.7,7.8z M294.2,6.4V1.9h1.6c0.5,0,0.9,0.1,1.2,0.3c0.4,0.2,0.6,0.6,0.6,1.1c0,0.6-0.3,1-0.9,1.2l1.1,1.9h-0.9
			L296,4.7h-1.1v1.6H294.2z M294.9,4.1h0.7c0.8,0,1.2-0.3,1.2-0.8c0-0.5-0.4-0.8-1.1-0.8h-0.7V4.1z"/>
	</g>
</g>
</svg>
